<svg role="img" viewBox="0 0 24 24" xmlns="http://www.w3.org/2000/svg"><title>Flower</title><path d="M12 2c-1.1 0-2 .9-2 2 0 .74.4 1.38 1 1.73V7c-2.21 0-4 1.79-4 4 0 .74.21 1.43.57 2.02L4.93 15.4c-.39-.24-.85-.4-1.35-.4C2.07 15 1 16.07 1 17.42s1.07 2.42 2.58 2.42c1.51 0 2.73-1.07 2.73-2.42 0-.5-.16-.96-.43-1.35l2.59-2.38c.64.43 1.4.73 2.23.81v3.77c-.59.35-.99.99-.99 1.73 0 1.1.9 2 2 2s2-.9 2-2c0-.74-.4-1.38-.99-1.73V14.5c.83-.08 1.59-.38 2.23-.81l2.59 2.38c-.27.39-.43.85-.43 1.35 0 1.35 1.22 2.42 2.73 2.42S23 18.77 23 17.42s-1.07-2.42-2.58-2.42c-.5 0-.96.16-1.35.4l-2.64-2.38c.36-.59.57-1.28.57-2.02 0-2.21-1.79-4-4-4V5.73c.6-.35 1-.99 1-1.73 0-1.1-.9-2-2-2zm0 7c1.1 0 2 .9 2 2s-.9 2-2 2-2-.9-2-2 .9-2 2-2z"/></svg>
